<?xml version="1.0" encoding="UTF-8" standalone="no"?>
<!-- Created with Inkscape (http://www.inkscape.org/) -->

<svg
   xmlns:dc="http://purl.org/dc/elements/1.1/"
   xmlns:cc="http://creativecommons.org/ns#"
   xmlns:rdf="http://www.w3.org/1999/02/22-rdf-syntax-ns#"
   xmlns:svg="http://www.w3.org/2000/svg"
   xmlns="http://www.w3.org/2000/svg"
   xmlns:sodipodi="http://sodipodi.sourceforge.net/DTD/sodipodi-0.dtd"
   xmlns:inkscape="http://www.inkscape.org/namespaces/inkscape"
   width="300px"
   height="400px"
   viewBox="0 0 300 400"
   version="1.1"
   id="SVGRoot"
   inkscape:version="0.92.3 (2405546, 2018-03-11)"
   sodipodi:docname="bug.svg">
  <sodipodi:namedview
     id="base"
     pagecolor="#ffffff"
     bordercolor="#666666"
     borderopacity="1.0"
     inkscape:pageopacity="0.0"
     inkscape:pageshadow="2"
     inkscape:zoom="1.979899"
     inkscape:cx="148.59093"
     inkscape:cy="245.24424"
     inkscape:document-units="px"
     inkscape:current-layer="layer1"
     showgrid="false"
     inkscape:window-width="1920"
     inkscape:window-height="1057"
     inkscape:window-x="1834"
     inkscape:window-y="-8"
     inkscape:window-maximized="1" />
  <defs
     id="defs815" />
  <metadata
     id="metadata818">
    <rdf:RDF>
      <cc:Work
         rdf:about="">
        <dc:format>image/svg+xml</dc:format>
        <dc:type
           rdf:resource="http://purl.org/dc/dcmitype/StillImage" />
        <dc:title></dc:title>
      </cc:Work>
    </rdf:RDF>
  </metadata>
  <g
     id="layer1"
     inkscape:groupmode="layer"
     inkscape:label="Layer 1">
    <path
       style="fill:#502d16;stroke:#000000;stroke-width:1px;stroke-linecap:butt;stroke-linejoin:miter;stroke-opacity:1;opacity:1;fill-opacity:1"
       d="m 220,158.57143 c 0,0 -12.85714,-3.92857 2.14286,0.35714 15,4.28572 21.07143,8.21429 27.5,2.5 6.42857,-5.71428 8.57143,-9.28571 2.14285,-10.35714 C 245.35714,150 237.5,148.21429 237.5,148.21429 l -28.92857,8.57142 z"
       id="path1393"
       inkscape:connector-curvature="0" />
    <path
       style="fill:#784421;stroke:#000000;stroke-width:1px;stroke-linecap:butt;stroke-linejoin:miter;stroke-opacity:1;fill-opacity:1"
       d="m 216.42857,151.78571 c 0,0 15.35714,-32.14285 25,-40 9.64286,-7.85714 13.92857,-15.357139 18.92857,-12.142853 5,3.214283 16.07143,12.142853 9.64286,24.642853 -6.42857,12.5 -13.21429,21.78572 -25.35714,24.28572 -12.14286,2.5 -26.42857,6.07143 -26.07143,8.92857 0.35714,2.85714 -2.14286,-5.71429 -2.14286,-5.71429 z"
       id="path1391"
       inkscape:connector-curvature="0" />
    <path
       style="fill:#502d16;stroke:#000000;stroke-width:1px;stroke-linecap:butt;stroke-linejoin:miter;stroke-opacity:1;opacity:1;fill-opacity:1"
       d="m 94.642857,160.35714 c 0,0 -19.642857,-3.21428 -31.071428,0.35715 C 52.142857,164.28571 45,165 46.071429,170.35714 c 1.071428,5.35715 11.071428,10.35715 17.857143,5.71429 6.785714,-4.64286 18.928571,-11.78572 22.857142,-12.85714 3.928572,-1.07143 7.857143,-2.85715 7.857143,-2.85715 z"
       id="path1397"
       inkscape:connector-curvature="0" />
    <path
       style="fill:#784421;stroke:#000000;stroke-width:1px;stroke-linecap:butt;stroke-linejoin:miter;stroke-opacity:1;fill-opacity:1"
       d="m 94.642857,160.35714 c 0,0 -20,-34.28572 -30,-39.64286 -10,-5.35714 -21.78571,-12.5 -27.142852,-5.71429 -5.357143,6.78572 -10.357143,22.85715 3.928572,30.35715 14.28571,7.5 40,13.57143 47.85714,15.71428 7.85714,2.14286 5.35714,-0.71428 5.35714,-0.71428 z"
       id="path1395"
       inkscape:connector-curvature="0" />
    <path
       style="fill:#803300;stroke:#000000;stroke-width:1px;stroke-linecap:butt;stroke-linejoin:miter;stroke-opacity:1"
       d="m 88.928572,217.85714 -21.071429,40 25.714286,56.07143 c 0,0 6.071428,13.92857 2.857143,20.35714 C 93.214286,340.71429 92.5,341.42857 92.5,341.42857 l 7.142857,-10.71428 c 0,0 2.857143,-17.5 1.785713,-19.28572 -1.07143,-1.78571 -1.07143,-1.78571 -1.07143,-1.78571 l 6.42857,12.5 c 0,0 2.14286,17.14285 0,20 -2.14285,2.85714 5,-8.21429 5,-8.21429 0,0 0,-19.28571 -2.85714,-22.5 -2.85714,-3.21428 -2.85714,-2.85714 -2.85714,-2.85714 0,0 10,8.21428 11.42857,11.42857 1.42857,3.21429 4.64286,12.85714 4.64286,12.85714 0,0 1.42857,-9.64285 0,-13.92857 -1.42857,-4.28571 -6.42857,-12.5 -6.42857,-12.5 L 109.64286,302.5 121.42857,305 c 0,0 5.35714,2.85714 6.42857,7.5 1.07143,4.64286 1.07143,4.64286 1.07143,4.64286 l -3.57143,-15 c 0,0 -2.85714,-5.35715 -8.21428,-5.71429 -5.35715,-0.35714 -13.57143,0.35714 -13.57143,0.35714 0,0 6.07143,-7.85714 9.64286,-7.5 3.57142,0.35715 3.57142,0.35715 3.57142,0.35715 0,0 -8.92857,-4.28572 -12.85714,-2.5 -3.92857,1.78571 -9.285713,6.42857 -9.285713,6.42857 0,0 1.071429,-10 -3.928571,-16.78572 -5,-6.78571 -14.642857,-20.35714 -14.642857,-20.35714 L 95,223.21429 Z"
       id="path1387"
       inkscape:connector-curvature="0" />
    <path
       style="fill:#803300;stroke:#000000;stroke-width:1px;stroke-linecap:butt;stroke-linejoin:miter;stroke-opacity:1"
       d="m 205.71429,236.07143 6.07142,35 -46.07142,-4.64286 c 0,0 -16.42858,6.78572 -19.28572,11.07143 -2.85714,4.28571 -7.85714,13.92857 -7.14286,15.71429 C 140,295 145,279.28571 151.42857,278.57143 c 6.42857,-0.71429 5.35714,-1.42857 5.35714,-1.42857 0,0 -5.71428,5 -7.5,9.64285 -1.78571,4.64286 -3.21428,10 -2.14285,13.21429 1.07143,3.21429 2.14285,6.07143 2.14285,6.07143 0,0 3.92858,-19.64286 7.85715,-21.42857 3.92857,-1.78572 3.92857,-1.78572 3.92857,-1.78572 0,0 -6.07143,5 -5.71429,12.14286 0.35715,7.14286 3.92857,14.28571 3.92857,14.28571 0,0 0.71429,-13.21428 3.21429,-18.92857 2.5,-5.71428 2.5,-5.71428 2.5,-5.71428 0,0 -1.78571,12.5 0.71429,16.78571 2.5,4.28572 4.64285,6.78572 4.64285,6.78572 0,0 -2.14285,-8.92858 0.35715,-15.71429 2.5,-6.78571 5,-16.78571 5,-16.78571 0,0 20.71428,-2.85715 28.21428,-1.78572 7.5,1.07143 14.64286,0.71429 14.64286,0.71429 L 210.71429,230 Z"
       id="path1389"
       inkscape:connector-curvature="0" />
    <ellipse
       style="opacity:1;fill:#44aa00;fill-opacity:1;stroke:#000000;stroke-width:0.74078739;stroke-miterlimit:4;stroke-dasharray:none;stroke-opacity:1"
       id="path1385"
       cx="157.32143"
       cy="191.78571"
       rx="76.25"
       ry="65" />
    <path
       style="fill:#ff2a2a;stroke:#000000;stroke-width:1px;stroke-linecap:butt;stroke-linejoin:miter;stroke-opacity:1"
       d="m 151.07143,178.57143 c 0,0 -7.5,-13.21429 -18.57143,-13.57143 -11.07143,-0.35714 -16.78571,3.57143 -16.78571,3.57143 0,0 -4.28572,2.14286 -3.92858,8.21428 0.35715,6.07143 7.85715,-6.42857 21.07143,-2.85714 13.21429,3.57143 18.21429,4.64286 18.21429,4.64286 z"
       id="path1399"
       inkscape:connector-curvature="0" />
    <path
       style="fill:#ff2a2a;stroke:#000000;stroke-width:1px;stroke-linecap:butt;stroke-linejoin:miter;stroke-opacity:1"
       d="m 168.57143,178.57143 c 0,0 9.64286,-5.71429 15.71428,-6.07143 6.07143,-0.35714 21.42858,4.28571 21.42858,4.28571 0,0 -2.5,-10 -11.78572,-10.71428 -9.28571,-0.71429 -15.71428,1.07143 -25.35714,12.5 z"
       id="path1401"
       inkscape:connector-curvature="0" />
    <ellipse
       style="opacity:1;fill:#aa4400;fill-opacity:1;stroke:#000000;stroke-width:0.74078739;stroke-miterlimit:4;stroke-dasharray:none;stroke-opacity:1"
       id="path1405"
       cx="158.84648"
       cy="192.6662"
       rx="10.227795"
       ry="7.5761442" />
    <path
       style="fill:none;stroke:#000000;stroke-width:1px;stroke-linecap:butt;stroke-linejoin:miter;stroke-opacity:1"
       d="m 154.93215,191.52977 2.02031,3.91434 h -0.12627"
       id="path1407"
       inkscape:connector-curvature="0" />
    <path
       style="fill:none;stroke:#000000;stroke-width:1px;stroke-linecap:butt;stroke-linejoin:miter;stroke-opacity:1"
       d="m 160.61426,195.31784 2.77792,-4.16688"
       id="path1409"
       inkscape:connector-curvature="0" />
    <path
       style="fill:#ffffff;stroke:#000000;stroke-width:1px;stroke-linecap:butt;stroke-linejoin:miter;stroke-opacity:1"
       d="m 105.94121,193.04492 c 0,0 18.68637,36.2393 49.74856,35.35542 31.06219,-0.88389 43.42281,-14.76783 46.46701,-25.75889 l 3.0442,-10.99106 c 0,0 -14.66095,22.86035 -47.49091,23.8705 -32.82996,1.01015 -51.08462,-21.72959 -51.76886,-22.47597"
       id="path1427"
       inkscape:connector-curvature="0"
       sodipodi:nodetypes="csscsc" />
    <g
       id="g1433">
      <path
         inkscape:connector-curvature="0"
         id="path1415"
         d="m 114.45471,201.04854 0.26151,4.78924"
         style="fill:none;stroke:#000000;stroke-width:1px;stroke-linecap:butt;stroke-linejoin:miter;stroke-opacity:1"
         sodipodi:nodetypes="cc" />
      <path
         inkscape:connector-curvature="0"
         id="path1417"
         d="m 114.71622,205.83778 4.99583,-0.22824 c -1.13112,8.66817 -1.03904,2.05079 -1.11213,4.37083"
         style="fill:none;stroke:#000000;stroke-width:1px;stroke-linecap:butt;stroke-linejoin:miter;stroke-opacity:1"
         sodipodi:nodetypes="ccc" />
      <path
         inkscape:connector-curvature="0"
         id="path1419"
         d="m 118.59992,209.98037 5.52892,-1.80212 0.88651,7.28136 6.18456,-3.53027 2.04459,9.24303 6.07361,-6.37583 1.85071,9.93302 6.4767,-8.32215 3.26134,10.55801 6.04559,-10.3731 5.02275,10.19453 5.07878,-11.64477 5.31862,9.89232 4.53036,-11.91262 4.56101,8.75589 1.87872,-10.7762 5.42957,7.95496 1.76776,-12.12184 5.80838,4.67196 -0.12627,-9.59645 5.17703,0.63135 -0.12627,-5.80838"
         style="fill:none;stroke:#000000;stroke-width:1px;stroke-linecap:butt;stroke-linejoin:miter;stroke-opacity:1"
         sodipodi:nodetypes="cccccccccccccccccccccc" />
    </g>
    <path
       style="opacity:1;fill:#338000;fill-opacity:1;stroke:none;stroke-width:0.68398845;stroke-miterlimit:4;stroke-dasharray:none;stroke-opacity:1"
       d="m 158.40061,127.0338 c -22.08534,0.0284 -45.36249,7.93582 -58.5963,23.09299 13.27891,-12.51015 35.08557,-16.35198 54.81623,-16.37875 38.77394,-3e-5 70.20657,26.94498 70.20703,60.1836 -0.0314,13.01467 -0.7895,28.93501 -9.91948,39.33341 11.80622,-11.06663 18.20154,-26.27816 18.23255,-41.27482 -4.7e-4,-33.23862 -35.96609,-64.95646 -74.74003,-64.95643 z"
       id="path1385-8"
       inkscape:connector-curvature="0"
       sodipodi:nodetypes="ccccccc" />
    <ellipse
       style="opacity:0.11;fill:#ffffff;fill-opacity:1;stroke:none;stroke-width:0.74078739;stroke-miterlimit:4;stroke-dasharray:none;stroke-opacity:1"
       id="path2677"
       cx="159.24107"
       cy="192.90178"
       rx="7.8125"
       ry="5.1339288" />
    <path
       style="opacity:0.13600003;fill:#000000;fill-opacity:1;stroke:none;stroke-width:1px;stroke-linecap:butt;stroke-linejoin:miter;stroke-opacity:1"
       d="m 91.166267,159.07862 c 0,0 -22.097087,-33.71384 -28.536809,-34.47146 -6.439723,-0.75761 -20.203051,-15.78363 -24.36993,-4.16688 -4.16688,11.61676 2.399112,24.36993 2.399112,24.36993 0,0 -4.798225,-1.76776 -6.565992,-6.31345 -1.767766,-4.54569 -2.904188,-15.40483 3.535534,-23.73859 6.439723,-8.33375 29.041886,7.32361 29.041886,7.32361 0,0 8.586297,7.3236 13.51079,15.02602 4.924494,7.70241 12.694232,20.09261 12.694232,20.09261 z"
       id="path2683"
       inkscape:connector-curvature="0"
       sodipodi:nodetypes="ccscsscscc" />
    <path
       style="fill:#000000;stroke:none;stroke-width:1px;stroke-linecap:butt;stroke-linejoin:miter;stroke-opacity:1;fill-opacity:1;opacity:0.157"
       d="m 216.42857,151.78571 10.89286,-20.53571 10.625,-16.51786 11.16071,-9.82143 6.96429,-5.624997 3.125,-0.267857 6.07143,4.285714 4.82143,6.16071 1.96428,6.16072 -0.44643,5.08928 -1.25,3.92858 c 0,0 3.125,-4.55358 -1.78571,-11.42858 -4.91072,-6.875 -8.83929,-13.03571 -12.67857,-10.80357 -3.83929,2.23215 -15.98215,15.80357 -17.94643,18.30357 -1.96429,2.5 -18.92857,32.67858 -18.92857,32.67858 z"
       id="path2685"
       inkscape:connector-curvature="0" />
    <path
       style="fill:none;stroke:#000000;stroke-width:1px;stroke-linecap:butt;stroke-linejoin:miter;stroke-opacity:1"
       d="M 189.91071,107.85714 Z"
       id="path2687"
       inkscape:connector-curvature="0" />
  </g>
</svg>
