<?xml version="1.0" encoding="UTF-8" standalone="no"?>
<!-- Created with Inkscape (http://www.inkscape.org/) -->

<svg
   xmlns:dc="http://purl.org/dc/elements/1.1/"
   xmlns:cc="http://creativecommons.org/ns#"
   xmlns:rdf="http://www.w3.org/1999/02/22-rdf-syntax-ns#"
   xmlns:svg="http://www.w3.org/2000/svg"
   xmlns="http://www.w3.org/2000/svg"
   xmlns:xlink="http://www.w3.org/1999/xlink"
   xmlns:sodipodi="http://sodipodi.sourceforge.net/DTD/sodipodi-0.dtd"
   xmlns:inkscape="http://www.inkscape.org/namespaces/inkscape"
   width="100px"
   height="100px"
   viewBox="0 0 100 100"
   version="1.1"
   id="SVGRoot"
   inkscape:version="0.92.3 (2405546, 2018-03-11)"
   sodipodi:docname="hit.svg">
  <sodipodi:namedview
     id="base"
     pagecolor="#ffffff"
     bordercolor="#666666"
     borderopacity="1.0"
     inkscape:pageopacity="0.0"
     inkscape:pageshadow="2"
     inkscape:zoom="5.12"
     inkscape:cx="50"
     inkscape:cy="50"
     inkscape:document-units="px"
     inkscape:current-layer="layer1"
     showgrid="false"
     inkscape:window-width="1920"
     inkscape:window-height="1057"
     inkscape:window-x="1834"
     inkscape:window-y="-8"
     inkscape:window-maximized="1" />
  <defs
     id="defs2007">
    <linearGradient
       inkscape:collect="always"
       id="linearGradient2639">
      <stop
         style="stop-color:#f8820f;stop-opacity:1"
         offset="0"
         id="stop2635" />
      <stop
         style="stop-color:#d60e00;stop-opacity:1"
         offset="1"
         id="stop2637" />
    </linearGradient>
    <radialGradient
       inkscape:collect="always"
       xlink:href="#linearGradient2639"
       id="radialGradient2641"
       cx="50.9231"
       cy="54.856377"
       fx="50.9231"
       fy="54.856377"
       r="43.285715"
       gradientTransform="matrix(1.0000001,0,0,1.0840213,-4.4877673e-6,-4.2911957)"
       gradientUnits="userSpaceOnUse" />
  </defs>
  <metadata
     id="metadata2010">
    <rdf:RDF>
      <cc:Work
         rdf:about="">
        <dc:format>image/svg+xml</dc:format>
        <dc:type
           rdf:resource="http://purl.org/dc/dcmitype/StillImage" />
        <dc:title></dc:title>
      </cc:Work>
    </rdf:RDF>
  </metadata>
  <g
     id="layer1"
     inkscape:groupmode="layer"
     inkscape:label="Layer 1">
    <path
       style="opacity:1;fill:url(#radialGradient2641);fill-opacity:1;stroke:#000000;stroke-width:0.74078739;stroke-miterlimit:4;stroke-dasharray:none;stroke-opacity:1"
       d="M 94.158203 4.5371094 A 2.6768821 61.529143 40.879789 0 0 70.763672 28.195312 A 33.691406 33.691406 0 0 0 52.464844 22.105469 A 2.1484375 38.769531 0 0 0 51.367188 16.601562 A 2.1484375 38.769531 0 0 0 50.265625 22.130859 A 33.691406 33.691406 0 0 0 29.568359 30.169922 A 51.758937 2.2750055 45.395938 0 0 12.873047 15.882812 A 51.758937 2.2750055 45.395938 0 0 26.896484 32.744141 A 33.691406 33.691406 0 0 0 17.835938 53.980469 A 41.992188 1.7578125 0 0 0 8.59375 55.078125 A 41.992188 1.7578125 0 0 0 17.794922 56.175781 A 33.691406 33.691406 0 0 0 27.15625 79.033203 A 2.6768821 61.529143 40.879789 0 0 13.820312 97.582031 A 2.6768821 61.529143 40.879789 0 0 30.191406 81.861328 A 33.691406 33.691406 0 0 0 50.339844 89.414062 A 2.1484375 38.769531 0 0 0 51.367188 94.140625 A 2.1484375 38.769531 0 0 0 52.390625 89.40625 A 33.691406 33.691406 0 0 0 74.339844 80.439453 A 51.758937 2.2750055 45.395938 0 0 85.564453 89.585938 A 51.758937 2.2750055 45.395938 0 0 76.544922 78.195312 A 33.691406 33.691406 0 0 0 85.144531 56.076172 A 41.992188 1.7578125 0 0 0 92.578125 55.078125 A 41.992188 1.7578125 0 0 0 85.072266 54.080078 A 33.691406 33.691406 0 0 0 74.462891 31.177734 A 2.6768821 61.529143 40.879789 0 0 94.382812 4.5664062 A 2.6768821 61.529143 40.879789 0 0 94.158203 4.5371094 z M 50.011719 25.306641 A 2.1484375 38.769531 0 0 0 49.683594 31.341797 A 24.128569 24.128569 0 0 0 36.363281 36.726562 A 51.758937 2.2750055 45.395938 0 0 31.835938 32.337891 A 30.600388 30.600388 0 0 1 50.011719 25.306641 z M 52.722656 25.328125 A 30.600388 30.600388 0 0 1 68.607422 30.582031 A 2.6768821 61.529143 40.879789 0 0 64.626953 35.027344 A 24.128569 24.128569 0 0 0 53.050781 31.291016 A 2.1484375 38.769531 0 0 0 52.722656 25.328125 z M 53.142578 33.605469 A 21.914894 21.914894 0 0 1 63.054688 36.796875 A 2.6768821 61.529143 40.879789 0 0 53.470703 47.71875 A 2.1484375 38.769531 0 0 0 53.142578 33.605469 z M 49.587891 33.636719 A 2.1484375 38.769531 0 0 0 49.246094 49.527344 A 51.758937 2.2750055 45.395938 0 0 37.957031 38.285156 A 21.914894 21.914894 0 0 1 49.587891 33.636719 z M 72.388672 33.675781 A 30.600388 30.600388 0 0 1 81.898438 53.910156 A 41.992188 1.7578125 0 0 0 75.703125 53.671875 A 24.128569 24.128569 0 0 0 68.601562 38.203125 A 2.6768821 61.529143 40.879789 0 0 72.388672 33.675781 z M 29.015625 35.017578 A 51.758937 2.2750055 45.395938 0 0 33.386719 39.658203 A 24.128569 24.128569 0 0 0 27.597656 53.609375 A 41.992188 1.7578125 0 0 0 20.869141 53.837891 A 30.600388 30.600388 0 0 1 29.015625 35.017578 z M 67.105469 39.982422 A 21.914894 21.914894 0 0 1 73.414062 53.603516 A 41.992188 1.7578125 0 0 0 55.683594 53.333984 A 2.6768821 61.529143 40.879789 0 0 55.861328 53.130859 A 2.6768821 61.529143 40.879789 0 0 67.105469 39.982422 z M 34.900391 41.246094 A 51.758937 2.2750055 45.395938 0 0 46.615234 53.330078 A 41.992188 1.7578125 0 0 0 29.769531 53.554688 A 21.914894 21.914894 0 0 1 34.900391 41.246094 z M 81.947266 56.244141 A 30.600388 30.600388 0 0 1 74.462891 75.902344 A 51.758937 2.2750055 45.395938 0 0 69.972656 71.039062 A 24.128569 24.128569 0 0 0 75.75 56.482422 A 41.992188 1.7578125 0 0 0 81.947266 56.244141 z M 20.783203 56.314453 A 41.992188 1.7578125 0 0 0 27.589844 56.546875 A 24.128569 24.128569 0 0 0 33.513672 71.246094 A 2.6768821 61.529143 40.879789 0 0 29.021484 76.728516 A 30.600388 30.600388 0 0 1 20.783203 56.314453 z M 73.449219 56.550781 A 21.914894 21.914894 0 0 1 68.457031 69.419922 A 51.758937 2.2750055 45.395938 0 0 56.398438 56.816406 A 41.992188 1.7578125 0 0 0 73.449219 56.550781 z M 29.716797 56.601562 A 41.992188 1.7578125 0 0 0 45.630859 56.822266 A 2.6768821 61.529143 40.879789 0 0 34.884766 69.587891 A 21.914894 21.914894 0 0 1 29.716797 56.601562 z M 53.496094 60.267578 A 51.758937 2.2750055 45.395938 0 0 65.654297 72.21875 A 21.914894 21.914894 0 0 1 53.138672 77.300781 A 2.1484375 38.769531 0 0 0 53.496094 60.267578 z M 49.242188 60.714844 A 2.1484375 38.769531 0 0 0 49.595703 77.255859 A 21.914894 21.914894 0 0 1 38.390625 72.900391 A 2.6768821 61.529143 40.879789 0 0 49.242188 60.714844 z M 67.265625 73.769531 A 51.758937 2.2750055 45.395938 0 0 72.083984 78.337891 A 30.600388 30.600388 0 0 1 52.650391 86.414062 A 2.1484375 38.769531 0 0 0 53.048828 79.429688 A 24.128569 24.128569 0 0 0 67.265625 73.769531 z M 36.960938 74.484375 A 24.128569 24.128569 0 0 0 49.681641 79.40625 A 2.1484375 38.769531 0 0 0 50.082031 86.394531 A 30.600388 30.600388 0 0 1 32.207031 79.681641 A 2.6768821 61.529143 40.879789 0 0 36.960938 74.484375 z "
       id="path2566" />
  </g>
</svg>
